<svg width="393" height="456" viewBox="0 0 393 456" fill="none" xmlns="http://www.w3.org/2000/svg">
<g clip-path="url(#clip0_5_490)">
<path d="M217.845 415.063C229.942 415.063 239.748 405.257 239.748 393.16C239.748 381.064 229.942 371.257 217.845 371.257C205.748 371.257 195.942 381.064 195.942 393.16C195.942 405.257 205.748 415.063 217.845 415.063Z" fill="#EDC585" stroke="black" stroke-width="3.05477" stroke-miterlimit="10"/>
<path d="M172.596 196.054L130.327 210.849L192.217 387.68L234.486 372.885L172.596 196.054Z" fill="#FFEFBB" stroke="black" stroke-width="3.05477" stroke-miterlimit="10"/>
<path d="M35.5363 404.034C47.6328 404.034 57.439 394.228 57.439 382.131C57.439 370.035 47.6328 360.229 35.5363 360.229C23.4397 360.229 13.6336 370.035 13.6336 382.131C13.6336 394.228 23.4397 404.034 35.5363 404.034Z" fill="#EDC585" stroke="black" stroke-width="3.05477" stroke-miterlimit="10"/>
<path d="M154.451 218.55L115.532 196.396L22.8499 359.214L61.7691 381.368L154.451 218.55Z" fill="#FFEFBB" stroke="black" stroke-width="3.05477" stroke-miterlimit="10"/>
<path d="M281.273 151.926C309.332 146.867 326.318 110.813 319.212 71.3965C312.106 31.9801 283.598 4.12787 255.538 9.18671C227.479 14.2456 210.493 50.2998 217.599 89.7162C224.705 129.133 253.213 156.985 281.273 151.926Z" fill="#CE9261" stroke="black" stroke-width="3.05477" stroke-miterlimit="10"/>
<path d="M242.772 96.9689C241.672 97.3354 240.573 98.3435 241.031 99.4738C241.306 100.146 242.1 100.543 242.833 100.574C243.872 100.635 244.91 100.024 245.124 99.0461C245.338 98.0686 244.33 96.8467 243.322 96.9994" fill="black"/>
<path d="M299.774 96.5101C299.377 96.9378 298.827 97.2433 298.521 97.732C298.002 98.6179 298.552 100.023 299.591 100.451C300.629 100.878 301.851 100.298 302.126 99.2594C302.401 98.2208 301.698 96.9989 300.66 96.6018" fill="black"/>
<mask id="mask0_5_490" style="mask-type:luminance" maskUnits="userSpaceOnUse" x="216" y="8" width="105" height="145">
<path d="M281.423 151.899C309.483 146.84 326.469 110.786 319.362 71.3696C312.256 31.9533 283.748 4.10101 255.689 9.15986C227.629 14.2187 210.643 50.273 217.749 89.6893C224.856 129.106 253.363 156.958 281.423 151.899Z" fill="white"/>
</mask>
<g mask="url(#mask0_5_490)">
<path d="M226.032 54.6296C229.117 54.4769 232.783 54.9962 234.555 57.8677C239.228 55.6072 242.558 50.8417 243.322 45.3431C244.849 49.4365 247.018 53.3161 249.706 56.7374C249.89 52.2775 250.073 47.8175 250.256 43.3575C252.822 48.2146 255.358 53.0412 257.924 57.8982C258.351 52.9495 259.543 48.123 261.375 43.6936C263.697 48.0313 265.469 52.7051 266.569 57.4706C267.241 53.4077 268.768 49.5893 270.998 46.3207C271.884 49.3449 272.8 52.3691 273.686 55.3933C274.878 49.6198 275.458 43.6325 275.427 37.584C278.696 44.0907 281.934 50.5973 285.203 57.104C285.203 52.8884 284.744 48.6117 283.767 44.4267C287.188 49.1005 290.64 53.8048 294.062 58.4786C294.062 57.0429 294.336 55.6072 294.795 54.2936C294.947 53.8965 295.131 53.4688 295.497 53.2855C296.23 52.919 297.086 53.7132 297.666 54.4158C300.813 58.0815 305.303 61.4418 309.519 60.281C308.633 58.3259 307.777 56.4014 306.892 54.4464C309.06 58.051 311.718 61.3807 314.712 64.2522C313.979 53.8659 317.43 43.6936 315.292 33.3684C314.681 30.4053 313.643 27.5338 312.604 24.6929C312.054 23.1655 311.474 21.6381 310.649 20.2329C309.671 18.6444 308.388 17.2698 307.105 15.9257C303.99 12.6571 300.874 9.41903 297.758 6.15043C295.039 3.30949 292.198 0.376908 288.685 -1.05883C285.63 -2.31129 282.362 -2.31129 279.215 -2.21965C268.463 -1.94472 257.74 -1.11993 247.171 0.315812C242.497 0.926766 237.793 1.69046 233.638 3.7677C230.064 5.57002 227.04 8.25821 224.321 11.2519C215.798 20.63 210.3 32.9102 207.734 46.0152C207.306 48.2452 206.939 50.5668 207.459 52.8884C208.467 57.5622 210.941 57.9288 214.332 56.7985C218.089 55.5461 222.061 54.8129 226.093 54.6296H226.032Z" fill="black"/>
</g>
<path d="M254.311 101.319C255.39 95.1706 249.84 89.0582 241.914 87.6663C233.988 86.2744 226.687 90.1301 225.607 96.2783C224.528 102.427 230.078 108.539 238.004 109.931C245.93 111.323 253.231 107.467 254.311 101.319Z" stroke="black" stroke-width="3.05477" stroke-miterlimit="10"/>
<path d="M311.483 100.833C312.353 94.6345 306.625 88.7067 298.689 87.5928C290.753 86.4789 283.615 90.6007 282.745 96.799C281.875 102.997 287.603 108.925 295.539 110.039C303.474 111.153 310.613 107.031 311.483 100.833Z" stroke="black" stroke-width="3.05477" stroke-miterlimit="10"/>
<path d="M251.753 93.1504C261.559 93.6086 283.92 93.1504 283.92 93.1504" stroke="black" stroke-width="3.05477" stroke-miterlimit="10"/>
<path d="M252.792 135.367C264.5 139 281 140 292.656 133.381" stroke="black" stroke-width="3.11587" stroke-miterlimit="10"/>
<path d="M225.543 95.6247C222.427 94.7388 219.342 93.7002 216.318 92.4478" stroke="black" stroke-width="3.05477" stroke-miterlimit="10"/>
<path d="M311.229 95.6852C314.956 94.2189 318.439 92.1111 321.524 89.4535" stroke="black" stroke-width="2.93258" stroke-miterlimit="10"/>
<path d="M211.582 434.791C221.949 429.645 225.798 416.298 220.179 404.98C214.56 393.661 201.602 388.657 191.235 393.803C180.869 398.949 177.02 412.296 182.638 423.615C188.257 434.933 201.216 439.937 211.582 434.791Z" fill="#EDC585" stroke="black" stroke-width="2.93258" stroke-miterlimit="10"/>
<path d="M226.276 407.486L184.151 392.304L246.926 155.62L289.052 170.833L226.276 407.486Z" fill="#FFEFBB" stroke="black" stroke-width="3.48244" stroke-miterlimit="10"/>
<path d="M368.425 419.974C374.818 410.326 371.461 396.847 360.927 389.867C350.394 382.887 336.672 385.049 330.279 394.697C323.886 404.345 327.243 417.824 337.776 424.804C348.31 431.784 362.032 429.622 368.425 419.974Z" fill="#EDC585" stroke="black" stroke-width="3.05477" stroke-miterlimit="10"/>
<path d="M367.468 389.005L323.418 396.947L259.145 160.661L303.226 152.718L367.468 389.005Z" fill="#FFEFBB" stroke="black" stroke-width="3.05477" stroke-miterlimit="10"/>
<path d="M354.882 727.748H296.719L246.407 152.504H304.539L354.882 727.748Z" fill="#FFEFBB" stroke="black" stroke-width="3.05477" stroke-miterlimit="10"/>
<path d="M171.474 197.195H113.311V603.021H171.474V197.195Z" fill="#FFEFBB" stroke="black" stroke-width="3.05477" stroke-miterlimit="10"/>
<path d="M203.018 143.595C214.267 105.472 201.047 67.9757 173.491 59.8444C145.934 51.7131 114.476 76.0263 103.226 114.149C91.9772 152.272 105.197 189.769 132.754 197.9C160.311 206.032 191.769 181.718 203.018 143.595Z" fill="#EDC585" stroke="black" stroke-width="2.93258" stroke-miterlimit="10"/>
<path d="M124.002 137.016C122.597 137.047 120.856 137.811 120.917 139.246C120.917 140.102 121.681 140.804 122.506 141.11C123.666 141.537 125.163 141.232 125.805 140.163C126.446 139.094 125.866 137.444 124.644 137.261" fill="black"/>
<path d="M179.11 170.741C178.652 170.741 178.377 171.016 178.377 171.505C178.377 171.81 178.622 172.024 178.866 172.146C179.233 172.269 179.721 172.146 179.935 171.78C180.149 171.413 180.057 170.863 179.691 170.802C179.538 170.802 179.263 170.741 179.11 170.741Z" fill="black"/>
<path d="M171.504 150.732C170.863 151.068 170.099 151.221 169.519 151.679C168.51 152.504 168.541 154.245 169.519 155.101C170.496 155.956 172.207 155.681 172.97 154.642C173.734 153.604 173.459 151.954 172.451 151.16" fill="black"/>
<mask id="mask1_5_490" style="mask-type:luminance" maskUnits="userSpaceOnUse" x="99" y="58" width="109" height="142">
<path d="M203.152 143.61C214.401 105.487 201.181 67.9906 173.624 59.8593C146.068 51.728 114.609 76.0412 103.36 114.164C92.1109 152.287 105.331 189.784 132.887 197.915C160.444 206.047 191.903 181.733 203.152 143.61Z" fill="white"/>
</mask>
<g mask="url(#mask1_5_490)">
<path d="M121.711 110.044C125.56 97.3051 132.342 88.7212 142.178 80.8094C135.824 90.2486 131.059 101.032 128.279 112.243C143.797 117.803 155.65 121.377 168.113 125.562C177.919 128.861 187.756 135.337 193.926 136.528L195.301 120.185C196.737 125.989 197.256 132.16 196.859 138.361C200.83 140.438 203.213 141.844 205.748 143.707C208.681 129.991 210.452 115.848 208.742 102.284C207.031 88.7212 201.533 75.7385 192.002 67.9182C186.228 63.1834 179.294 60.5257 172.451 57.8986C167.044 55.8519 161.454 53.7441 155.589 54.3856C151.862 54.7827 148.196 56.3101 144.683 57.9902C126.232 66.9102 106.59 83.1005 95.9902 103.048C98.9533 103.659 112.761 107.997 121.742 110.044H121.711Z" fill="black"/>
</g>
<path d="M94.5543 146.549C94.1572 146.549 93.7906 146.488 93.3935 146.396C92.3549 146.09 91.4996 145.388 90.9802 144.441C90.4609 143.494 90.3387 142.394 90.6442 141.356C91.1635 139.645 92.752 138.453 94.5543 138.453C94.9515 138.453 95.318 138.515 95.7151 138.606C96.7538 138.912 97.6091 139.614 98.1284 140.561C98.6477 141.508 98.7699 142.608 98.4644 143.647C97.9451 145.357 96.3566 146.549 94.5543 146.549Z" fill="#EFEFEF"/>
<path d="M94.5544 139.95C94.7987 139.95 95.0431 139.981 95.2875 140.042C96.6316 140.439 97.3953 141.844 96.9982 143.188C96.6621 144.288 95.6541 145.021 94.5544 145.021C94.31 145.021 94.0656 144.991 93.8212 144.93C92.4771 144.533 91.7134 143.127 92.1105 141.783C92.4466 140.684 93.4546 139.95 94.5544 139.95ZM94.5544 136.896C92.08 136.896 89.8806 138.545 89.178 140.897C88.2921 143.861 90.0027 146.976 92.9659 147.832C93.4852 147.984 94.0045 148.046 94.5544 148.046C97.0287 148.046 99.2282 146.396 99.9308 144.044C100.817 141.081 99.106 137.965 96.1428 137.109C95.6235 136.957 95.1042 136.896 94.5544 136.896Z" fill="black"/>
<path d="M194.109 175.934C193.712 175.934 193.346 175.873 192.949 175.782C190.81 175.14 189.558 172.88 190.199 170.741C190.719 169.031 192.307 167.839 194.109 167.839C194.507 167.839 194.873 167.9 195.27 167.992C196.309 168.297 197.164 169 197.683 169.947C198.203 170.894 198.325 171.994 198.02 173.032C197.5 174.743 195.912 175.934 194.109 175.934Z" fill="#EFEFEF"/>
<path d="M194.109 169.336C194.354 169.336 194.598 169.367 194.843 169.428C196.187 169.825 196.95 171.23 196.553 172.574C196.217 173.674 195.209 174.407 194.109 174.407C193.865 174.407 193.621 174.377 193.376 174.315C192.032 173.918 191.268 172.513 191.666 171.169C192.002 170.069 193.01 169.336 194.109 169.336ZM194.109 166.281C191.635 166.281 189.436 167.931 188.733 170.283C187.847 173.246 189.558 176.362 192.521 177.217C193.04 177.37 193.56 177.431 194.109 177.431C196.584 177.431 198.783 175.782 199.486 173.43C200.372 170.466 198.661 167.351 195.698 166.495C195.179 166.342 194.659 166.281 194.109 166.281Z" fill="black"/>
<path d="M144.867 178.47C149.326 178.378 153.725 179.417 158.185 179.356C162.645 179.295 167.472 177.859 169.916 174.132C158.705 170.13 138.268 164.021 126.416 167.992C120.092 170.1 118.993 173.949 125.866 177.981C131.395 181.219 138.94 178.562 144.867 178.47Z" stroke="black" stroke-width="3.05477" stroke-miterlimit="10"/>
<path d="M142.231 231.394C148.498 223.66 139.85 206.266 122.915 192.542C105.98 178.819 87.1713 173.963 80.9044 181.697C74.6375 189.43 83.2857 206.824 100.221 220.548C117.156 234.271 135.964 239.127 142.231 231.394Z" fill="black"/>
<path d="M188.297 220.62C205.231 206.897 213.88 189.503 207.613 181.769C201.346 174.036 182.537 178.892 165.602 192.615C148.667 206.339 140.019 223.733 146.286 231.466C152.553 239.2 171.362 234.344 188.297 220.62Z" fill="black"/>
<path d="M275.977 167.014C273.32 182.93 274.328 199.426 278.879 214.913C280.407 198.265 281.934 181.647 283.431 164.998C291.282 166.312 299.377 165.945 307.075 163.96C306.892 170.65 311.413 176.423 315.262 181.891C330.902 204.313 338.02 231.47 344.099 258.138C352.713 295.987 359.861 334.171 365.482 372.57C351.644 376.969 338.172 382.498 325.251 389.096C325.984 396.214 326.137 403.362 325.678 410.51L270.662 414.665C263.728 376.755 256.824 338.845 249.89 300.905C243.169 336.188 234.585 371.104 224.168 405.47C209.292 402.507 194.415 399.544 179.569 396.58C183.357 380.879 187.145 365.147 190.932 349.445C200.28 310.558 209.658 271.701 219.861 233.028C225.024 213.539 230.308 194.049 236.112 174.712C238.617 166.342 238.404 162.066 247.201 161.76C255.999 161.455 266.66 166.526 275.977 166.984V167.014Z" fill="black"/>
</g>
<defs>
<clipPath id="clip0_5_490">
<rect width="393" height="456" fill="white"/>
</clipPath>
</defs>
</svg>
