<svg width="36" height="35" viewBox="0 0 36 35" fill="none" xmlns="http://www.w3.org/2000/svg">
<path d="M4.47744 35C4.47744 35 28.4416 26.5854 34.5948 18.5986C34.5948 18.5986 35.8254 17.3858 35.8254 14.858C35.8254 13.1955 35.9216 10.7309 35.9882 9.23854C36.0622 7.58576 35.7909 5.92569 35.1225 4.4066C34.1385 2.16806 32.1286 -0.255208 28.0667 0.021875C20.6804 0.527431 17.7062 2.21424 15.5532 4.53785C15.5532 4.53785 16.1525 0 8.67985 0C1.20724 0 0.474781 4.20486 0.270086 6.63056C0.0653903 9.05625 -1.2343 26.1358 4.47497 34.9976L4.47744 35Z" fill="#FA0E00"/>
</svg>
